<mxfile host="app.diagrams.net" modified="2024-05-03T11:29:04.593Z" agent="Mozilla/5.0 (Macintosh; Intel Mac OS X 10_15_7) AppleWebKit/537.36 (KHTML, like Gecko) Chrome/122.0.0.0 Safari/537.36" version="24.2.5" etag="tYVyWF4Ijndm2AK6p0qR" type="github">
  <diagram name="第 1 页" id="NcrxZinENlputd_QSf13">
    <mxGraphModel>
      <root>
        <mxCell id="0" />
        <mxCell id="1" parent="0" />
      </root>
    </mxGraphModel>
  </diagram>
</mxfile>
